<?xml version="1.0" standalone="no"?><!DOCTYPE svg PUBLIC "-//W3C//DTD SVG 1.1//EN" "http://www.w3.org/Graphics/SVG/1.1/DTD/svg11.dtd"><svg t="1751549114521" class="icon" viewBox="0 0 1024 1024" version="1.1" xmlns="http://www.w3.org/2000/svg" p-id="8638" xmlns:xlink="http://www.w3.org/1999/xlink" width="200" height="200"><path d="M766.99648 64c67.145143 0 121.270857 21.577143 165.449143 65.828571 7.021714 7.168 33.865143 43.373714 26.112 78.701715-8.118857 37.595429-99.474286 158.061714-175.762286 158.061714-10.971429 0-28.013714-2.340571-48.713143-22.966857-21.357714-21.211429-28.598857-33.133714-30.939428-37.741714 2.340571-11.702857 7.606857-42.569143-17.554286-70.363429C672.934766 221.622857 649.675337 204.8 610.763337 204.8c-69.193143 0-171.446857 57.782857-260.388571 147.017143-73.142857 73.435429-150.528 181.321143-148.553143 264.192 0.804571 36.425143 16.822857 58.441143 29.988571 70.509714a76.8 76.8 0 0 0 62.902857 19.748572c4.681143 2.486857 17.408 10.459429 41.252572 34.084571 21.430857 21.357714 27.209143 41.984 19.309714 69.046857-20.333714 70.070857-117.906286 141.604571-151.405714 148.918857a70.144 70.144 0 0 1-14.921143 1.609143c-29.403429 0-54.125714-18.944-59.245714-24.064-166.4-166.912 13.385143-468.553143 174.811428-630.564571 148.333714-148.845714 325.485714-241.371429 462.409143-241.371429z m0-64C597.597623 0 401.721051 117.321143 259.238766 260.242286c-208.457143 209.188571-362.057143 533.065143-174.811429 720.896 12.361143 12.434286 52.516571 42.861714 104.594286 42.861714 9.216 0 18.724571-0.950857 28.525714-3.145143 77.312-16.822857 295.862857-194.340571 163.547429-325.851428-46.738286-46.445714-69.485714-53.028571-83.602286-53.028572-5.339429 0-9.508571 1.024-13.092571 1.024a13.019429 13.019429 0 0 1-9.362286-3.657143c-30.646857-27.940571 16.530286-137.654857 120.685714-242.249143 82.651429-82.797714 168.96-128.219429 215.113143-128.219428 12.141714 0 21.430857 3.145143 27.282286 9.508571 14.555429 16.091429-30.134857 30.208 50.834285 110.665143 29.696 29.549714 61.805714 41.545143 93.842286 41.545143 112.493714 0 225.28-148.041143 238.372572-208.457143 14.336-65.828571-28.891429-122.88-43.446858-137.362286C918.475337 25.161143 845.551909 0 767.069623 0z" fill="#ffffff" p-id="8639"></path></svg>